<svg width="16" height="20" viewBox="0 0 16 20" fill="none" xmlns="http://www.w3.org/2000/svg">
<rect x="13" width="18" height="13" rx="3" transform="rotate(90 13 0)" fill="#83A4EF"/>
<rect x="16" y="2" width="18" height="14" rx="3" transform="rotate(90 16 2)" fill="#F8F9F0"/>
<rect width="6" height="1" transform="matrix(1 0 0 -1 6 10)" fill="#D9D9D9"/>
<rect width="6" height="1" transform="matrix(1 0 0 -1 6 14)" fill="#D9D9D9"/>
<rect width="4" height="1" transform="matrix(1 0 0 -1 6 12)" fill="#D9D9D9"/>
<rect x="12.4401" y="19.4013" width="0.622438" height="3.1122" transform="rotate(-135 12.4401 19.4013)" fill="#D9D9D9"/>
<rect x="12" y="15.4401" width="0.622438" height="3.1122" transform="rotate(-45 12 15.4401)" fill="#D9D9D9"/>
<rect x="5.20068" y="4" width="0.622438" height="3.1122" transform="rotate(45 5.20068 4)" fill="#D9D9D9"/>
<rect x="5.64075" y="7.96118" width="0.622438" height="3.1122" transform="rotate(135 5.64075 7.96118)" fill="#D9D9D9"/>
</svg>
