<svg width="16" height="20" viewBox="0 0 16 20" fill="none" xmlns="http://www.w3.org/2000/svg">
<rect x="13" width="18" height="13" rx="3" transform="rotate(90 13 0)" fill="#F5BD4F"/>
<rect x="16" y="2" width="18" height="14" rx="3" transform="rotate(90 16 2)" fill="#F8F9F0"/>
<rect x="5.33337" y="15.6667" width="9.33333" height="2.33333" transform="rotate(-90 5.33337 15.6667)" fill="#D9D9D9"/>
<rect x="7.66663" y="18" width="2.33333" height="2.33333" transform="rotate(-90 7.66663 18)" fill="#D9D9D9"/>
<rect x="7.66663" y="6.33334" width="2.33333" height="2.33333" transform="rotate(-90 7.66663 6.33334)" fill="#D9D9D9"/>
<rect x="3" y="13.3333" width="4.66667" height="2.33333" transform="rotate(-90 3 13.3333)" fill="#D9D9D9"/>
<rect width="6" height="1" transform="matrix(1 0 0 -1 9 10)" fill="#D9D9D9"/>
<rect width="4" height="1" transform="matrix(1 0 0 -1 9 13)" fill="#D9D9D9"/>
</svg>
