<svg width="20" height="18" viewBox="0 0 20 18" fill="none" xmlns="http://www.w3.org/2000/svg">
<rect x="2" width="8" height="5" rx="2.5" fill="#939BC3"/>
<rect y="3" width="20" height="15" rx="3" fill="#83A4EF"/>
<path d="M12 11C12 10.4477 12.4477 10 13 10H14C14.5523 10 15 10.4477 15 11V12C15 12.5523 14.5523 13 14 13H13C12.4477 13 12 12.5523 12 12V11Z" fill="#CBA3FF"/>
<path d="M12 15C12 14.4477 12.4477 14 13 14H14C14.5523 14 15 14.4477 15 15V16C15 16.5523 14.5523 17 14 17H13C12.4477 17 12 16.5523 12 16V15Z" fill="#74FFBC"/>
<path d="M16 11C16 10.4477 16.4477 10 17 10H18C18.5523 10 19 10.4477 19 11V12C19 12.5523 18.5523 13 18 13H17C16.4477 13 16 12.5523 16 12V11Z" fill="#FFDD85"/>
<path d="M16 15C16 14.4477 16.4477 14 17 14H18C18.5523 14 19 14.4477 19 15V16C19 16.5523 18.5523 17 18 17H17C16.4477 17 16 16.5523 16 16V15Z" fill="#FF7070"/>
</svg>
